<svg width="32" height="32" viewBox="0 0 32 32" fill="none" xmlns="http://www.w3.org/2000/svg">
<rect width="32" height="32" fill="white" fill-opacity="0.01"/>
<path d="M9 13C9 9.13401 12.134 6 16 6C19.866 6 23 9.13401 23 13C23 14.9542 22.2005 16.7198 20.9083 17.9908C20.5223 18.3705 20.1824 18.8638 20.0191 19.4628L19.3271 22H12.6729L11.9809 19.4628C11.8176 18.8638 11.4777 18.3705 11.0917 17.9908C9.79945 16.7198 9 14.9542 9 13ZM13.2183 24H18.7817L18.4372 25.2631C18.3185 25.6982 17.9234 26 17.4724 26H14.5276C14.0766 26 13.6815 25.6982 13.5628 25.2631L13.2183 24ZM16 4C11.0294 4 7 8.02944 7 13C7 15.512 8.03046 17.7852 9.68921 19.4167C9.88273 19.607 10.0009 19.8038 10.0514 19.989L11.6333 25.7894C11.9893 27.0945 13.1747 28 14.5276 28H17.4724C18.8253 28 20.0107 27.0945 20.3667 25.7894L21.9486 19.989C21.9991 19.8038 22.1173 19.607 22.3108 19.4167C23.9695 17.7852 25 15.512 25 13C25 8.02944 20.9706 4 16 4Z" fill="#CC800D"/>
</svg>
